<?xml version="1.0" encoding="UTF-8"?>
<svg xmlns="http://www.w3.org/2000/svg" xmlns:xlink="http://www.w3.org/1999/xlink" width="30px" height="30px" viewBox="0 0 30 30" version="1.1">
<g id="surface1">
<path style="stroke:none;fill-rule:nonzero;fill:#90ee90 ;fill-opacity:1;" d="M 29.699219 13.03125 L 26.050781 13.03125 C 25.277344 8.222656 21.476562 4.425781 16.667969 3.644531 L 16.667969 0 L 13.03125 0 L 13.03125 3.644531 C 8.222656 4.421875 4.421875 8.222656 3.644531 13.03125 L 0 13.03125 L 0 16.667969 L 3.644531 16.667969 C 4.421875 21.476562 8.222656 25.277344 13.03125 26.054688 L 13.03125 29.699219 L 16.667969 29.699219 L 16.667969 26.054688 C 21.476562 25.277344 25.277344 21.476562 26.050781 16.667969 L 29.699219 16.667969 Z M 16.667969 24.21875 L 16.667969 20.910156 L 13.03125 20.910156 L 13.03125 24.21875 C 9.222656 23.480469 6.21875 20.476562 5.480469 16.667969 L 8.789062 16.667969 L 8.789062 13.03125 L 5.480469 13.03125 C 6.21875 9.222656 9.222656 6.21875 13.03125 5.484375 L 13.03125 8.789062 L 16.667969 8.789062 L 16.667969 5.484375 C 20.476562 6.222656 23.476562 9.222656 24.21875 13.03125 L 20.910156 13.03125 L 20.910156 16.667969 L 24.21875 16.667969 C 23.476562 20.472656 20.472656 23.480469 16.667969 24.21875 Z M 16.667969 24.21875 "/>
</g>
</svg>
