<svg xmlns="http://www.w3.org/2000/svg" xmlns:svg="http://www.w3.org/2000/svg" width="49" height="30" style=""><rect id="backgroundrect" width="100%" height="100%" x="0" y="0" fill="none" stroke="none"/>
    
<g class="currentLayer" style=""><title>Layer 1</title><g id="Shape_17_2_" class="">
      <g id="g1403" stroke-width="0">
        <path id="path1405" style="fill-rule:evenodd" d="m48.64999008178711,2.2060623168945312 c0,-0.24150441586971283 -0.41069525480270386,-0.3512791395187378 -0.41069525480270386,-0.3512791395187378 c0,0 0.06571123749017715,-1.0684740543365479 -0.5421177744865417,-1.0684740543365479 h-0.9610268473625183 c0,0 -0.2710588872432709,-0.42446228861808777 -0.6406845450401306,-0.42446228861808777 c-0.16427810490131378,0 -0.32855620980262756,0.42446228861808777 -0.32855620980262756,0.42446228861808777 h-16.789222717285156 c-0.1560641974210739,0 -0.1889198273420334,0.14636631309986115 -0.1889198273420334,0.14636631309986115 h-6.686119079589844 c0,0 -0.07392515242099762,-0.14636631309986115 -0.20534762740135193,-0.14636631309986115 H7.491752624511719 c0,0 -0.19549094140529633,-0.7830597758293152 -0.28666529059410095,-0.7830597758293152 c-0.25216689705848694,-0.0073183155618608 -0.5388321876525879,0 -0.7335017323493958,0 c-0.0919957384467125,0 -0.39344605803489685,0.7830597758293152 -0.39344605803489685,0.7830597758293152 h-1.4078633785247803 c-0.6160428524017334,0 -0.6160428524017334,0.5927835702896118 -0.6160428524017334,0.5927835702896118 v3.7908873558044434 c0,0 -0.20534762740135193,0.21954947710037231 -0.2636663615703583,0.4537355601787567 c-0.031212838366627693,0.12441136687994003 -0.0049283429980278015,0.6732850670814514 0.15688559412956238,0.86356121301651 c0.186455637216568,0.21223114430904388 1.1704814434051514,0.16100293397903442 1.6739939451217651,0.20491284132003784 c0.5043337941169739,0.036591578274965286 1.834165096282959,0.8123330473899841 2.0411553382873535,1.5734379291534424 c0.2061690092086792,0.7537865042686462 -0.046819258481264114,2.5540921688079834 -0.34416261315345764,3.556701421737671 c-0.2981647551059723,1.0026092529296875 -1.1441969871520996,3.9299354553222656 -2.201326608657837,5.320415496826172 c-1.4127917289733887,1.8588521480560303 -2.777942657470703,3.512791633605957 -3.580441474914551,4.939863204956055 c-0.8024985194206238,1.4343898296356201 -1.349544644355774,2.7955963611602783 -1.48753821849823,3.4908363819122314 c-0.13717220723628998,0.6952399611473083 0.025463106110692024,1.0904290676116943 0.33184176683425903,1.4782997369766235 c0.28420111536979675,0.35859745740890503 1.3503659963607788,0.9440626502037048 1.5335360765457153,1.0245641469955444 c0.183991476893425,0.08050146698951721 0.839461088180542,0.2780959904193878 0.839461088180542,0.2780959904193878 c0,0 -0.019713371992111206,0.16832126677036285 0.07146096974611282,0.28541430830955505 c0.0919957384467125,0.12441136687994003 0.5840086936950684,0.892834484577179 0.8197477459907532,0.892834484577179 h8.682097434997559 c0.5971509218215942,0 0.8953157067298889,-0.2927326261997223 0.9922397136688232,-0.5342370271682739 c0.08624599874019623,-0.21223114430904388 -0.08131766319274902,-0.8855162262916565 -0.08131766319274902,-0.8855162262916565 c0,0 0.3351273238658905,-0.08781978487968445 0.6341134905815125,-0.600101888179779 c0.21931125223636627,-0.3732340931892395 0.013963639736175537,-1.2441136837005615 0.062425676733255386,-1.7344406843185425 c0.059961505234241486,-0.600101888179779 0.8263188600540161,-2.01985502243042 1.0784857273101807,-2.4516355991363525 c0.25216689705848694,-0.431780606508255 0.8657456040382385,-0.46105387806892395 1.0407017469406128,-0.7611047625541687 c0.15277864038944244,-0.26345935463905334 -0.2685946822166443,-1.0611557960510254 -0.18234869837760925,-1.2660685777664185 c0.15113584697246552,-0.3512791395187378 0.6817541122436523,-1.4197531938552856 0.8895658850669861,-1.763714075088501 c0.20945458114147186,-0.34396082162857056 0.8057841062545776,-0.24150441586971283 1.0119531154632568,-0.5342370271682739 c0.2735230326652527,-0.38055238127708435 -0.2800941467285156,-1.0904290676116943 -0.183991476893425,-1.3099784851074219 c0.08131766319274902,-0.1756395697593689 0.951991617679596,-1.719804048538208 1.3511873483657837,-2.415044069290161 c0.20534762740135193,-0.3512791395187378 1.0349520444869995,-0.3366425335407257 1.50314462184906,-0.3293241858482361 c0.5256898999214172,0 1.527786374092102,0.6806033253669739 2.102759599685669,0.7025582790374756 c0.5749733448028564,0.021954946219921112 8.246760368347168,-0.10977473855018616 8.657456398010254,-0.13172967731952667 c0.41069525480270386,-0.021954946219921112 0.739251434803009,-0.1536846160888672 0.9199573993682861,-0.2707776725292206 c0.30391448736190796,-0.20491284132003784 0.38605353236198425,-0.5196003913879395 0.3203422725200653,-0.6806033253669739 c-0.07392515242099762,-0.16832126677036285 -0.38605353236198425,-0.8269696235656738 -0.50104820728302,-1.0831106901168823 c-0.06571123749017715,-0.1536846160888672 -0.09856685996055603,-2.9492812156677246 -0.041069526225328445,-3.0663743019104004 c0.05749733746051788,-0.10977473855018616 0.763893187046051,-0.7098765969276428 0.9856686592102051,-0.7171949148178101 c2.915936231613159,-0.1536846160888672 7.565006732940674,-0.3000509440898895 9.11743450164795,-0.40250736474990845 c0.008213904686272144,0 0.03285561874508858,-0.13172967731952667 0.03285561874508858,-0.13172967731952667 h0.8871017694473267 l0.041069526225328445,0.13172967731952667 h1.1663744449615479 c1.1253050565719604,0 3.047358751296997,-0.3512791395187378 3.5319793224334717,-0.5122820734977722 c0.402481347322464,-0.1390479952096939 0.6078289747238159,-1.1123839616775513 0.6078289747238159,-1.785668969154358 v-2.049128293991089 c0,0 0.35319793224334717,-0.1390479952096939 0.3778396546840668,-0.36591577529907227 c0.024641714990139008,-0.22686778008937836 0,-2.034491777420044 0,-2.3784525394439697 zm-18.185585021972656,10.582283973693848 c-0.18070590496063232,0.5122820734977722 -0.7885348796844482,1.2294769287109375 -1.7249200344085693,1.2880234718322754 c-0.9445990920066833,0.0585465244948864 -5.692235946655273,0.08050146698951721 -5.9632954597473145,0.05122821033000946 c-0.3942674398422241,-0.043909892439842224 -1.634567141532898,-0.48300883173942566 -1.9056259393692017,-1.031882405281067 c-0.2628449499607086,-0.5342370271682739 -0.3121283948421478,-1.1562938690185547 -0.17249199748039246,-1.5441645383834839 c0.13963638246059418,-0.3878706991672516 0.4271230399608612,-0.6366934776306152 0.4271230399608612,-0.6366934776306152 c0,0 0.27927276492118835,0.043909892439842224 0.3203422725200653,0.2780959904193878 c0.03285561874508858,0.20491284132003784 -0.1314224749803543,0.38055238127708435 -0.05749733746051788,0.46105387806892395 c0.024641714990139008,0.021954946219921112 0.45997869968414307,0 0.7803210020065308,0 c0.20534762740135193,0 0.46819257736206055,0.16100293397903442 0.49283432960510254,0.36591577529907227 c0.024641714990139008,0.20491284132003784 -0.03285561874508858,0.4683721959590912 0.01642780937254429,0.5196003913879395 c0.041069526225328445,0.05122821033000946 0.49283432960510254,0 0.49283432960510254,0 c0,0 0.3203422725200653,0.4098256826400757 0.8213905096054077,0.7171949148178101 c0.50104820728302,0.3073692321777344 1.1745884418487549,0.6513300538063049 1.511358618736267,0.6879216432571411 c0.6242567896842957,0.07318315654993057 0.3942674398422241,-0.3073692321777344 0.3942674398422241,-0.3073692321777344 c0,0 0.27927276492118835,-0.0146366311237216 0.41069525480270386,-0.1756395697593689 c0.07392515242099762,-0.08781978487968445 0.041069526225328445,-0.28541430830955505 -0.5421177744865417,-0.629375159740448 c-0.591401219367981,-0.35859745740890503 -1.133518934249878,-0.7976964116096497 -1.2895830869674683,-1.2733869552612305 c-0.16427810490131378,-0.4683721959590912 -0.2628449499607086,-1.0026092529296875 -0.17249199748039246,-1.3246151208877563 c0.09035295248031616,-0.3293241858482361 0.20534762740135193,-0.6440117359161377 0.20534762740135193,-0.6440117359161377 c0,0 2.3245351314544678,-0.2927326261997223 3.5401930809020996,-0.2927326261997223 c1.067807674407959,0 1.8481286764144897,0.6513300538063049 2.16025710105896,0.9733359813690186 c0.5339038372039795,0.5635102987289429 0.38605353236198425,2.1662213802337646 0.25463107228279114,2.517500638961792 z" stroke-width="0"/>
      </g>
    </g></g></svg>