<?xml version="1.0" standalone="no"?>
<!DOCTYPE svg PUBLIC "-//W3C//DTD SVG 20010904//EN"
 "http://www.w3.org/TR/2001/REC-SVG-20010904/DTD/svg10.dtd">
<svg version="1.0" xmlns="http://www.w3.org/2000/svg"
 width="1146.000000pt" height="1280.000000pt" viewBox="0 0 1146.000000 1280.000000"
 preserveAspectRatio="xMidYMid meet">
<metadata>
Created by potrace 1.15, written by Peter Selinger 2001-2017
</metadata>
<g transform="translate(0.000000,1280.000000) scale(0.100000,-0.100000)"
fill="#A9A9A9" stroke="none">
<path d="M11050 12794 c-196 -38 -421 -174 -625 -379 -143 -144 -194 -187
-305 -262 -265 -180 -561 -299 -1110 -449 -151 -41 -279 -79 -285 -83 -601
-468 -870 -719 -990 -926 -80 -138 -198 -234 -507 -410 -76 -43 -176 -108
-223 -144 -143 -110 -174 -130 -325 -202 -80 -39 -179 -87 -220 -107 -169 -82
-253 -150 -383 -310 -143 -174 -357 -360 -747 -647 -248 -183 -415 -315 -515
-404 -128 -116 -206 -152 -328 -153 -93 0 -145 17 -193 66 -46 46 -64 94 -64
171 1 106 68 183 239 276 171 91 233 129 429 260 478 320 840 604 1215 953
148 138 148 138 285 201 75 34 298 126 494 205 l358 142 15 51 c70 232 -31
433 -254 508 -98 34 -199 32 -271 -3 -80 -39 -117 -74 -241 -221 -114 -137
-175 -190 -238 -207 -21 -5 -109 -9 -197 -7 -155 2 -161 1 -224 -26 -271 -118
-464 -155 -983 -188 l-188 -11 -97 -56 c-270 -156 -645 -277 -1062 -346 -237
-39 -324 -46 -563 -46 -261 0 -312 -7 -406 -54 -26 -14 -72 -47 -102 -73 -30
-27 -78 -69 -108 -93 -29 -24 -120 -121 -201 -215 -166 -192 -191 -216 -274
-274 -74 -51 -112 -54 -179 -11 -77 49 -124 135 -194 355 -46 146 -80 237
-141 373 -66 147 -95 196 -155 259 -63 66 -132 100 -234 112 -43 5 -107 15
-143 21 -36 7 -98 9 -140 6 -312 -25 -562 -214 -632 -479 -66 -251 -42 -447
85 -692 51 -98 52 -101 43 -154 -6 -35 -5 -73 2 -114 34 -181 173 -317 342
-333 110 -11 195 -66 342 -221 46 -48 124 -130 174 -183 l90 -95 17 -95 c26
-149 36 -261 52 -607 16 -354 27 -466 56 -622 20 -102 106 -378 149 -476 60
-139 223 -329 400 -467 168 -130 475 -343 580 -401 196 -109 470 -141 567 -66
21 16 79 61 128 99 146 114 238 149 400 150 165 1 328 61 410 152 59 66 80
129 71 225 -4 55 -2 81 8 101 22 42 76 89 129 112 56 25 141 37 151 22 12 -19
23 -817 16 -1152 l-7 -325 -35 -55 c-99 -154 -192 -391 -223 -565 -27 -158
-39 -586 -26 -1000 13 -406 35 -846 51 -1025 17 -180 25 -919 11 -1033 -39
-329 -253 -571 -644 -726 -85 -34 -240 -80 -406 -121 -136 -34 -276 -90 -334
-134 -37 -28 -74 -87 -92 -143 l-6 -23 128 0 c371 0 992 27 1293 56 218 21
247 20 370 -10 203 -50 283 -45 351 23 71 70 79 184 29 406 -34 152 -34 130
-6 460 42 504 109 846 230 1189 25 72 50 134 55 139 22 22 117 29 496 36 376
8 403 10 457 30 72 28 131 90 153 163 13 40 18 101 20 258 15 979 42 1323 129
1685 13 55 34 150 46 210 47 239 155 741 251 1165 313 1392 317 1409 409 1849
22 107 40 195 40 196 0 1 156 148 348 327 526 493 838 818 1057 1103 38 50
115 146 171 215 55 69 197 251 314 405 364 477 486 621 729 857 180 175 211
212 271 327 43 80 111 156 164 183 22 11 82 53 131 92 205 161 400 273 576
331 l96 31 172 159 c180 166 263 255 333 358 58 85 101 192 101 247 -1 104
-85 235 -180 280 -47 22 -166 35 -223 24z"/>
</g>
</svg>
