<?xml version="1.0" standalone="no"?>
<!DOCTYPE svg PUBLIC "-//W3C//DTD SVG 20010904//EN"
 "http://www.w3.org/TR/2001/REC-SVG-20010904/DTD/svg10.dtd">
<svg version="1.0" xmlns="http://www.w3.org/2000/svg"
 width="1126.000000pt" height="1280.000000pt" viewBox="0 0 1126.000000 1280.000000"
 preserveAspectRatio="xMidYMid meet">
<metadata>
Created by potrace 1.15, written by Peter Selinger 2001-2017
</metadata>
<g transform="translate(0.000000,1280.000000) scale(0.100000,-0.100000)"
fill="#00FF00" stroke="none">
<path d="M10920 12791 c-42 -13 -82 -36 -178 -106 -105 -75 -138 -88 -269
-109 -131 -21 -182 -46 -254 -125 -59 -64 -226 -210 -241 -211 -4 0 -19 21
-32 48 -37 72 -82 130 -117 147 -30 16 -32 16 -58 -8 -34 -31 -137 -100 -511
-339 -944 -603 -1330 -867 -1376 -939 -13 -21 -40 -93 -59 -161 -20 -68 -45
-137 -56 -155 -32 -51 -108 -113 -223 -182 -208 -123 -241 -162 -286 -341 -39
-156 -72 -200 -147 -200 -18 0 -41 -16 -75 -50 -55 -56 -90 -76 -221 -126
-124 -47 -144 -61 -283 -194 -66 -63 -145 -128 -175 -145 -47 -26 -64 -30
-134 -30 -71 0 -88 4 -155 36 -118 57 -150 86 -212 191 -32 53 -73 107 -92
122 -20 15 -84 49 -143 77 -60 28 -144 76 -188 108 -126 92 -137 96 -240 95
-106 0 -141 -13 -356 -130 -219 -119 -302 -140 -416 -106 -38 12 -111 26 -163
32 -144 16 -154 19 -226 66 -37 24 -75 44 -85 44 -11 0 -30 -17 -45 -41 -25
-41 -26 -41 -67 -33 -81 15 -188 8 -252 -17 -59 -24 -62 -27 -120 -121 -11
-18 -34 -40 -50 -48 -48 -24 -163 -17 -305 19 -150 37 -248 41 -297 11 -18
-11 -43 -41 -58 -69 -22 -44 -29 -51 -67 -58 -24 -5 -63 -5 -88 -1 -25 4 -80
11 -123 14 -75 7 -80 6 -150 -29 -39 -20 -119 -73 -176 -118 l-105 -81 -19 23
c-62 77 -70 105 -78 258 -9 195 -50 340 -150 531 -65 124 -97 160 -210 235
-295 196 -550 268 -778 220 -175 -37 -353 -136 -474 -264 -80 -85 -119 -150
-152 -254 -56 -174 -17 -361 146 -704 49 -104 55 -123 39 -123 -30 0 -60 -33
-67 -72 -14 -88 60 -221 203 -367 95 -98 104 -105 140 -105 22 1 49 4 60 8 20
7 22 3 32 -56 30 -174 25 -225 -28 -260 -23 -16 -40 -38 -50 -68 -14 -40 -19
-45 -55 -52 -51 -10 -70 -34 -95 -117 -11 -37 -28 -75 -37 -83 -10 -9 -41 -19
-70 -23 -70 -9 -76 -19 -68 -110 8 -84 2 -100 -45 -110 -53 -12 -90 -75 -162
-279 -150 -425 -158 -504 -70 -694 60 -129 66 -157 45 -217 -15 -46 -15 -48
12 -105 35 -73 32 -98 -31 -232 -45 -97 -46 -102 -42 -176 4 -59 15 -103 48
-187 74 -192 83 -229 83 -350 0 -95 -4 -119 -27 -178 -29 -76 -33 -123 -11
-153 8 -12 44 -36 81 -55 55 -27 75 -44 113 -97 25 -36 64 -88 87 -116 22 -28
67 -89 99 -136 95 -137 176 -210 297 -269 141 -69 239 -95 358 -95 185 0 346
85 531 282 70 74 90 104 136 201 65 138 80 157 258 341 186 191 239 271 281
426 14 52 23 68 44 79 15 8 46 35 69 61 l41 47 62 -6 c35 -3 123 -1 195 5 101
8 140 8 162 -2 19 -7 53 -46 97 -108 37 -53 93 -122 124 -152 170 -168 391
-184 681 -49 129 60 172 63 177 14 1 -16 -13 -91 -32 -165 -68 -265 -82 -627
-45 -1161 l12 -175 -26 -45 c-16 -27 -28 -68 -33 -106 -5 -53 -10 -63 -25 -63
-37 0 -110 -43 -149 -88 -72 -81 -83 -165 -54 -419 23 -209 13 -245 -90 -312
-88 -58 -184 -161 -223 -242 -63 -130 -73 -201 -103 -709 -27 -454 -43 -598
-90 -780 -130 -506 -340 -789 -745 -1001 -114 -60 -188 -85 -312 -104 -245
-39 -333 -75 -390 -159 -29 -42 -33 -57 -33 -111 0 -67 21 -110 70 -147 40
-29 214 -51 350 -44 153 8 215 20 340 66 131 48 199 60 337 61 82 1 137 -6
228 -26 138 -30 228 -33 341 -10 93 20 162 53 197 95 40 47 51 100 41 210 -21
247 19 427 157 711 52 107 73 139 87 139 11 0 84 -7 163 -15 247 -25 442 -35
678 -35 l228 0 6 53 c6 49 15 362 37 1197 7 292 12 357 29 426 11 44 32 152
46 240 34 210 48 257 117 399 67 138 74 170 87 362 13 189 35 270 170 635 53
144 147 447 250 810 l62 217 56 58 c225 233 387 578 384 822 -1 80 -18 150
-72 287 l-40 103 25 98 c21 84 91 315 111 364 3 8 22 23 43 32 78 35 302 239
456 417 132 152 182 223 304 435 25 45 69 98 119 145 80 77 99 90 379 273 216
141 301 228 625 632 269 337 304 375 714 760 424 399 479 459 819 883 98 122
192 233 210 246 17 13 69 41 116 63 88 41 206 128 278 207 40 44 42 48 42 109
0 74 -11 110 -56 187 -57 99 -58 94 48 145 147 69 213 89 298 89 62 1 84 -4
125 -25 45 -23 50 -29 47 -55 -2 -16 -4 -48 -5 -71 -1 -36 -5 -43 -22 -43 -36
0 -65 -28 -65 -63 0 -77 102 -157 199 -157 34 0 45 5 68 35 19 23 59 50 120
80 142 69 154 93 199 394 26 176 27 190 16 325 -7 78 -19 170 -28 206 -50 196
-177 309 -304 271z"/>
</g>
</svg>
