<?xml version="1.0" standalone="no"?>
<!DOCTYPE svg PUBLIC "-//W3C//DTD SVG 20010904//EN"
 "http://www.w3.org/TR/2001/REC-SVG-20010904/DTD/svg10.dtd">
<svg version="1.0" xmlns="http://www.w3.org/2000/svg"
 width="881.000000pt" height="1280.000000pt" viewBox="0 0 881.000000 1280.000000"
 preserveAspectRatio="xMidYMid meet">
<metadata>
Created by potrace 1.15, written by Peter Selinger 2001-2017
</metadata>
<g transform="translate(0.000000,1280.000000) scale(0.100000,-0.100000)"
fill="#00FF00" stroke="none">
<path d="M6623 12781 c-18 -11 -63 -61 -100 -110 -62 -84 -74 -94 -156 -138
-96 -51 -117 -72 -167 -173 -18 -36 -51 -94 -73 -129 l-41 -64 -25 34 c-40 53
-91 99 -110 99 -9 0 -25 -14 -35 -31 -10 -17 -161 -209 -335 -427 -522 -654
-673 -855 -691 -920 -5 -20 -14 -91 -19 -157 -10 -145 -18 -162 -130 -300
-115 -142 -124 -163 -131 -316 -6 -134 -20 -176 -62 -186 -10 -3 -30 -28 -44
-55 -14 -28 -49 -71 -77 -97 -120 -108 -152 -147 -206 -250 -88 -169 -133
-207 -239 -199 -84 6 -147 41 -204 112 -58 73 -84 90 -167 112 -36 9 -106 35
-156 58 -154 69 -193 57 -365 -119 -63 -64 -135 -131 -160 -148 -40 -29 -53
-32 -120 -33 -41 0 -108 -4 -148 -9 -65 -7 -78 -6 -122 15 -55 26 -80 18 -80
-26 0 -29 -12 -36 -64 -39 -54 -2 -136 -44 -162 -83 -12 -17 -24 -49 -28 -72
-13 -82 -78 -110 -255 -109 -73 0 -109 -4 -135 -16 -45 -22 -52 -31 -63 -84
-12 -61 -41 -81 -135 -89 -59 -6 -83 -13 -110 -34 -28 -21 -137 -163 -168
-218 -7 -12 -13 -11 -35 10 -40 37 -62 87 -84 189 -25 113 -56 191 -117 291
-107 177 -156 217 -345 281 -236 79 -415 39 -571 -130 -148 -160 -212 -353
-178 -535 15 -80 102 -261 189 -391 59 -89 59 -90 40 -111 -59 -63 26 -215
186 -329 70 -50 80 -52 113 -29 13 9 25 14 27 13 10 -11 47 -142 52 -184 4
-42 2 -53 -16 -69 -14 -13 -21 -31 -21 -54 0 -28 -8 -43 -35 -68 -31 -28 -35
-37 -35 -81 0 -73 -15 -107 -56 -126 -44 -22 -50 -38 -30 -87 21 -54 20 -86
-4 -103 -11 -7 -27 -30 -35 -51 -37 -88 -64 -553 -37 -642 6 -23 37 -80 68
-128 51 -78 57 -94 59 -144 1 -41 10 -72 30 -110 l28 -53 -17 -101 c-22 -126
-17 -163 40 -269 122 -230 137 -277 132 -432 -3 -121 5 -139 76 -158 33 -9 72
-42 211 -178 l170 -168 87 -28 c76 -24 98 -27 180 -23 75 3 103 9 143 30 134
70 266 281 305 491 22 113 54 197 138 362 58 113 92 230 92 318 0 41 6 67 19
85 10 15 28 46 39 68 18 36 27 42 63 48 23 4 76 20 118 36 42 17 87 30 101 30
19 0 47 -22 107 -84 110 -113 165 -140 267 -134 91 6 167 45 273 143 107 98
107 99 114 -130 4 -105 10 -210 13 -235 20 -128 30 -187 58 -319 16 -79 47
-214 68 -300 35 -142 38 -164 33 -251 -6 -95 -6 -95 -43 -127 -84 -72 -92
-173 -30 -393 51 -185 51 -208 1 -275 -137 -181 -147 -290 -76 -794 58 -416
68 -532 60 -721 -17 -404 -115 -653 -351 -886 -57 -57 -94 -83 -179 -125 -59
-30 -125 -69 -147 -88 -88 -75 -104 -205 -36 -278 18 -19 32 -23 88 -23 125 0
278 57 385 144 72 58 180 112 254 126 29 5 90 10 135 10 91 1 157 22 238 78
95 65 109 134 61 302 -22 81 -26 114 -26 230 0 129 18 285 46 394 l12 49 168
29 c173 29 350 70 472 110 l70 23 -3 40 c-4 54 -71 451 -139 830 -45 255 -57
341 -63 485 -14 280 -12 430 6 512 18 85 19 198 3 295 -16 91 -13 286 6 463
16 149 27 329 45 721 l10 227 39 83 c48 103 96 259 111 368 7 46 10 139 8 214
-4 127 -6 135 -41 211 -20 43 -50 101 -67 128 -28 46 -30 54 -29 151 0 56 4
147 8 202 6 90 10 103 35 130 105 113 292 518 346 751 38 160 73 224 245 439
150 188 182 250 352 679 109 276 159 379 365 753 169 306 216 409 361 773
l101 255 65 65 c66 67 109 127 154 217 24 47 26 57 17 103 -11 59 -19 76 -72
149 l-38 55 57 59 c110 110 191 149 266 125 l41 -13 0 -54 c1 -45 -3 -59 -22
-78 -28 -28 -23 -55 18 -97 23 -24 39 -30 84 -34 l56 -4 18 40 c10 22 39 61
65 86 80 77 86 104 72 346 -10 190 -62 392 -126 492 -60 94 -135 127 -196 89z"/>
<path d="M8230 57 c0 -31 4 -57 8 -57 8 0 5 100 -3 109 -3 2 -5 -21 -5 -52z"/>
<path d="M8264 78 c2 -18 4 -42 5 -53 1 -16 3 -17 11 -5 5 8 5 19 0 25 -5 6
-7 20 -4 32 3 11 1 24 -4 27 -6 4 -9 -7 -8 -26z"/>
<path d="M8300 105 c0 -4 6 -18 14 -33 7 -15 12 -37 10 -49 -2 -13 1 -23 6
-23 14 0 12 51 -2 83 -12 24 -28 37 -28 22z"/>
<path d="M8425 55 c0 -30 3 -55 8 -55 4 0 7 25 7 55 0 30 -3 55 -7 55 -5 0 -8
-25 -8 -55z"/>
<path d="M8455 82 c0 -15 4 -33 8 -40 5 -6 5 -17 2 -22 -3 -5 -1 -10 4 -10 6
0 11 9 11 20 0 11 -5 20 -10 20 -6 0 -8 10 -4 24 3 13 2 26 -3 29 -4 3 -8 -7
-8 -21z"/>
<path d="M8495 55 c0 -30 3 -55 8 -55 4 0 7 25 7 55 0 30 -3 55 -7 55 -5 0 -8
-25 -8 -55z"/>
<path d="M8556 98 c17 -29 68 -88 72 -84 5 6 -61 95 -71 96 -5 0 -5 -6 -1 -12z"/>
<path d="M8664 85 c9 -13 17 -39 17 -57 2 -32 2 -32 6 -4 5 31 -14 86 -29 86
-6 0 -3 -11 6 -25z"/>
<path d="M8766 88 c4 -13 13 -39 20 -58 l14 -35 -6 35 c-8 43 -21 80 -29 80
-4 0 -3 -10 1 -22z"/>
</g>
</svg>
