<svg xmlns="http://www.w3.org/2000/svg" xmlns:svg="http://www.w3.org/2000/svg" width="55" height="21" style=""><rect id="backgroundrect" width="100%" height="100%" x="0" y="0" fill="none" stroke="none"/>  
    
<g class="currentLayer" style=""><title>Layer 1</title><g id="Shape_5_2_" class="">
      <g id="g1331" stroke-width="0">
        <path id="path1333" style="fill-rule:evenodd" d="M54.127235412597656,3.4713211059570312 L41.93451690673828,3.4618072509765625 c0,0 -0.03285561874508858,-0.3124920725822449 -0.05092621222138405,-0.6579165458679199 c-0.018070591613650322,-0.34542450308799744 -0.10103103518486023,-0.5071592926979065 -0.10103103518486023,-0.5071592926979065 h-0.13963638246059418 c0,0 -0.018070591613650322,-0.37030676007270813 -0.07967488467693329,-1.101406455039978 c-0.059961505234241486,-0.7223177552223206 -0.24970270693302155,-1.0809152126312256 -0.32362785935401917,-1.1475118398666382 c-0.07392515242099762,-0.06513301283121109 -0.2751658260822296,-0.054155535995960236 -0.49529847502708435,-0.02341861091554165 c-0.2209540456533432,0.030736925080418587 -0.4566931128501892,0.08416063338518143 -0.4846203923225403,0.16466209292411804 c-0.03449840098619461,0.09660176187753677 -0.03696257621049881,0.3549382984638214 -0.02710588648915291,0.9477218389511108 c0.012320857495069504,0.6710895299911499 -0.005749733652919531,1.2741187810897827 -0.005749733652919531,1.2741187810897827 h-5.678272724151611 c0,0 -0.011499467305839062,-0.2290632724761963 0.025463106110692024,-0.39372536540031433 c0.036141183227300644,-0.16466209292411804 0.27927276492118835,-0.3593292832374573 0.27927276492118835,-0.5891243815422058 c0,-0.23052693903446198 -0.18317009508609772,-0.5635102987289429 -0.7302161455154419,-0.5532646179199219 c-0.6283637285232544,0.011709305457770824 -0.9684194326400757,0.4551992118358612 -0.9634910225868225,0.7918417453765869 c0.004106952343136072,0.37250226736068726 0.3474481999874115,0.7442726492881775 0.3474481999874115,0.7442726492881775 h-3.7693612575531006 l-0.06899680197238922,-0.04317806288599968 l-3.9467811584472656,-0.012441136874258518 l-0.07392515242099762,-0.05927835404872894 H19.223068237304688 l-0.05831872671842575,0.17929872870445251 l-0.25052410364151,0.004390989430248737 V2.0962066650390625 l-0.11088772118091583,-0.0021954947151243687 l-0.02628449723124504,0.20198550820350647 H17.39136505126953 l-0.018070591613650322,-0.20198550820350647 l-0.11992301046848297,0.0021954947151243687 l-0.018070591613650322,0.314687579870224 h-4.744351387023926 l-0.3449839949607849,-0.31688305735588074 c0,0 0.5166546106338501,-0.6088838577270508 0.44108670949935913,-0.7215859293937683 c-0.07474653422832489,-0.10977473855018616 -1.2583701610565186,-0.5679013133049011 -1.4579681158065796,-0.5759514570236206 c-0.11006633192300797,-0.004390989430248737 -0.19220538437366486,0.1975945234298706 -0.19220538437366486,0.1975945234298706 c0,0 -0.4164450168609619,0.0021954947151243687 -0.8296043872833252,0.0146366311237216 c-0.4065883159637451,0.012441136874258518 -0.782785177230835,0.3944571912288666 -0.8016771674156189,0.6249841451644897 c-0.01889198087155819,0.23052693903446198 -0.020534763112664223,0.8591702580451965 -0.020534763112664223,0.8591702580451965 L8.638633728027344,2.4906692504882812 L8.589347839355469,2.4108963012695312 H7.30633544921875 c0,0 -0.0008213905384764075,-0.11489755660295486 -0.1462075114250183,-0.1170930489897728 c-0.14538611471652985,-0.0021954947151243687 -0.1289583146572113,0.1170930489897728 -0.1289583146572113,0.1170930489897728 H5.7785491943359375 c-0.2587380111217499,0 -0.5084407329559326,0.22833144664764404 -0.8123552203178406,0.6879216432571411 c-0.3573048710823059,0.5371643900871277 -0.7105028033256531,1.3216878175735474 -0.7105028033256531,1.3216878175735474 c0,0 -0.13717220723628998,-0.3615247905254364 -0.3770182430744171,-0.482276976108551 c-0.2308107167482376,-0.11562938988208771 -1.5130013227462769,-0.4112893044948578 -2.011585235595703,-0.4112893044948578 c-0.4985840320587158,0 -0.8871017694473267,0.44422173500061035 -0.9429563283920288,0.7406135201454163 c-0.05585455894470215,0.29565995931625366 0.0993882492184639,3.180540084838867 -0.16427810490131378,4.490518569946289 c-0.22916796803474426,1.1423890590667725 -0.7252878546714783,2.846092939376831 -0.7540364861488342,3.108088731765747 c-0.03449840098619461,0.32054221630096436 0.08788878470659256,0.2590683698654175 0.2727016508579254,0.4398307800292969 c0.18481285870075226,0.1807623952627182 0.15031446516513824,0.4347079396247864 0.5002268552780151,0.44788089394569397 c0.3671615421772003,0.0146366311237216 0.6250781416893005,-0.3593292832374573 1.0497370958328247,-1.3956027030944824 c0.4246589243412018,-1.0370053052902222 0.7400728464126587,-2.3206379413604736 0.8698525428771973,-2.9961183071136475 c0.1289583146572113,-0.6740168333053589 0.44272947311401367,-0.9206441044807434 0.6086503863334656,-1.0684740543365479 c0.16592088341712952,-0.14856180548667908 0.2907722294330597,-0.5159412026405334 0.4616214334964752,-0.3615247905254364 c0.08296044170856476,0.07464681565761566 -0.03449840098619461,0.2627275288105011 -0.2382032424211502,0.5913199186325073 c-0.2037048488855362,0.3293241858482361 -0.20534762740135193,0.6893852949142456 0.03449840098619461,0.8533155918121338 c0.23984602093696594,0.16466209292411804 0.9232428669929504,0.11782487481832504 1.1992301940917969,0.0351279154419899 c0.27680861949920654,-0.0819651335477829 0.23984602093696594,-0.4112893044948578 0.11088772118091583,-0.6740168333053589 c-0.12977971136569977,-0.2627275288105011 -0.5790802836418152,-0.6469390988349915 -0.6464343070983887,-0.9535765051841736 c-0.03203422948718071,-0.14636631309986115 0.09281712770462036,-0.16466209292411804 0.09281712770462036,-0.16466209292411804 c0,0 0.9733477234840393,1.5295279026031494 1.3832216262817383,1.5295279026031494 c0.47558510303497314,0 2.435422897338867,0.016100294888019562 2.435422897338867,0.016100294888019562 c0,0 0.01642780937254429,0.11270205676555634 0.07146096974611282,0.19466719031333923 c0.05503316596150398,0.0819651335477829 0.19795511662960052,0.14417080581188202 0.5856514573097229,0.47276321053504944 c0.3876963257789612,0.32859236001968384 0.6316493153572083,0.9089347720146179 0.5396535396575928,1.5829516649246216 c-0.0919957384467125,0.6740168333053589 -0.9413135647773743,1.1182385683059692 -1.9187681674957275,2.3682069778442383 c-0.9774547815322876,1.2507001161575317 -1.2969756126403809,1.951062798500061 -1.3791146278381348,2.158903121948242 c-0.09363851696252823,0.2407725751399994 -0.20534762740135193,0.42592597007751465 0.05339037999510765,0.5737559199333191 c0.2579166293144226,0.14782997965812683 3.5976905822753906,1.8588521480560303 3.5976905822753906,1.8588521480560303 c0,0 0.4123380184173584,0.23784524202346802 0.5527957677841187,0.05122821033000946 c0.18974120914936066,-0.25175005197525024 0.009035295806825161,-0.861365795135498 0.27680861949920654,-1.3831616640090942 c0.24477437138557434,-0.4786178171634674 0.5224043726921082,-0.51155024766922 0.6185070872306824,-0.6952399611473083 c0.10020964592695236,-0.19320352375507355 0.04846204072237015,-0.5635102987289429 0.3072000741958618,-1.1065292358398438 c0.2579166293144226,-0.5422871708869934 0.5281540751457214,-0.5510692000389099 0.6061861515045166,-0.6659667491912842 c0.08788878470659256,-0.12953418493270874 -0.14785030484199524,-0.42738962173461914 0.2759872078895569,-0.8225786089897156 c0.4246589243412018,-0.3944571912288666 0.8123552203178406,-0.29200077056884766 1.3511873483657837,-0.03951890394091606 c0.43123000860214233,0.20198550820350647 0.9363851547241211,0.5335052013397217 1.287118911743164,0.5496054887771606 c0.3507337272167206,0.016100294888019562 2.1216516494750977,-0.016100294888019562 2.509348154067993,-0.016100294888019562 c0.532261073589325,0 0.9101006984710693,-0.29858726263046265 1.0883424282073975,-0.6044928431510925 c0.17988452315330505,-0.3110284209251404 0.4246589243412018,-0.9089347720146179 0.5897583961486816,-1.4190213680267334 c0.16592088341712952,-0.5093547701835632 0.6020792126655579,-0.9213758707046509 0.8419252634048462,-0.9543083310127258 c0.23984602093696594,-0.03293241932988167 0.8000343441963196,-0.03293241932988167 0.8000343441963196,-0.03293241932988167 c0,0 -0.14702890813350677,0.34542450308799744 -0.23984602093696594,0.4939863085746765 c-0.09281712770462036,0.14782997965812683 -0.22177544236183167,0.5920517444610596 -0.22177544236183167,0.5920517444610596 l0.16592088341712952,0.0987972617149353 c0,0 0.1963123232126236,-0.4237304627895355 0.2883080840110779,-0.5883925557136536 c0.09281712770462036,-0.16466209292411804 0.29734334349632263,-0.635229766368866 0.29734334349632263,-0.635229766368866 l0.7975701689720154,-0.05927835404872894 c0,0 0.8115338087081909,2.960258722305298 2.085510492324829,5.789519309997559 c1.2723338603973389,2.828528881072998 2.804227113723755,5.065006256103516 2.804227113723755,5.065006256103516 c0,0 0.05421177297830582,0.0870879590511322 0.1462075114250183,0.13758432865142822 c0.0919957384467125,0.04903271421790123 0.22259682416915894,0.027809597551822662 0.22259682416915894,0.027809597551822662 l2.047726631164551,-1.2177677154541016 c0,0 0.07967488467693329,-0.032200589776039124 0.07967488467693329,-0.11489755660295486 c0,-0.08269696682691574 -0.04271230846643448,-0.11562938988208771 -0.04271230846643448,-0.11562938988208771 c0,0 -1.1992301940917969,-1.3648658990859985 -2.8962230682373047,-5.147703170776367 c-1.6969927549362183,-3.782837390899658 -1.712599277496338,-5.465318202972412 -1.712599277496338,-5.465318202972412 l0.17988452315330505,-0.1536846160888672 c0,0 -0.12074440717697144,-0.45080822706222534 -0.19959789514541626,-0.8233104944229126 c-0.08788878470659256,-0.42446228861808777 -0.018070591613650322,-0.7523228526115417 0.13224387168884277,-0.9718722701072693 c0.10103103518486023,-0.1456344723701477 0.32855620980262756,-0.150757297873497 0.4041241407394409,-0.16027110815048218 c0.07556792348623276,-0.009513810276985168 0.1289583146572113,-0.07391498982906342 0.1289583146572113,-0.07391498982906342 l0.2258823961019516,0.0021954947151243687 c0,0 0.06160429120063782,0.2210131138563156 0.09363851696252823,0.3549382984638214 c0.03203422948718071,0.1339251697063446 0.1043165996670723,0.1939353495836258 0.18070590496063232,0.1939353495836258 c0.07556792348623276,0 0.1560641974210739,-0.10099275410175323 0.1560641974210739,-0.10099275410175323 l15.669666290283203,-0.1053837388753891 c0,0 0.07803209871053696,0.0768423080444336 0.16427810490131378,0.0768423080444336 c0.08624599874019623,0 0.1560641974210739,-0.10099275410175323 0.23163212835788727,-0.35054731369018555 c0.07556792348623276,-0.24955454468727112 0.12074440717697144,-0.4266577959060669 0.12074440717697144,-0.4266577959060669 l12.085939407348633,-0.019027620553970337 c0,0 0.3655187785625458,-0.009513810276985168 0.3655187785625458,-1.535382628440857 c0,-1.5258687734603882 -0.4295872449874878,-1.532455325126648 -0.4295872449874878,-1.532455325126648 zM18.312149047851562,12.221099853515625 c-0.11335188895463943,0.2598001956939697 -0.3252706527709961,0.5635102987289429 -0.6135786771774292,0.6235204935073853 c-0.36634019017219543,0.0768423080444336 -2.3992817401885986,0.06732850521802902 -2.6358423233032227,0.028541430830955505 c-0.23738186061382294,-0.038055241107940674 -0.7967488169670105,-0.2107674777507782 -1.0661648511886597,-0.3644521236419678 c-0.2685946822166443,-0.1536846160888672 -0.5486888289451599,-0.31688305735588074 -0.6127573251724243,-0.4705677032470703 c-0.06488985568284988,-0.15295280516147614 0,-0.43763527274131775 0.08542461693286896,-0.6718213558197021 c0.1938481628894806,-0.5276505351066589 0.6029006838798523,-1.12189781665802 0.6029006838798523,-1.12189781665802 h1.0333092212677002 c0,0 -0.10760215669870377,0.2729731798171997 -0.08624599874019623,0.7962327599525452 c0.02135615423321724,0.518136739730835 0.2258823961019516,0.9594311714172363 0.4739423394203186,1.2082538604736328 c0.24723854660987854,0.24955454468727112 0.4517647922039032,0.39372536540031433 0.5807231068611145,0.39372536540031433 c0.12977971136569977,0 0.17249199748039246,-0.11562938988208771 0.10760215669870377,-0.2210131138563156 c-0.06406845897436142,-0.1053837388753891 -0.50104820728302,-0.5759514570236206 -0.5166546106338501,-0.9791906476020813 c-0.03203422948718071,-0.86356121301651 0.5601882934570312,-1.1987401247024536 0.5601882934570312,-1.1987401247024536 h2.647341728210449 c0,0 0.15113584697246552,0.057814694941043854 0.1289583146572113,0.1924717128276825 c-0.022177543491125107,0.13465701043605804 -0.5388321876525879,1.4395126104354858 -0.6891466379165649,1.7849370241165161 z" stroke-width="0"/>
      </g>
    </g></g></svg>