<svg xmlns="http://www.w3.org/2000/svg" xmlns:svg="http://www.w3.org/2000/svg" width="54" height="9" style=""><rect id="backgroundrect" width="100%" height="100%" x="0" y="0" fill="none" stroke="none"/>
    
<g class="currentLayer" style=""><title>Layer 1</title><g id="Shape_12" class="">
      <g id="g1373" stroke-width="0">
        <path id="path1375" style="fill-rule:evenodd" d="m53.53289031982422,1.8954391479492188 l-2.012406826019287,-0.036591578274965286 v-0.431780606508255 l1.8070591688156128,0.0073183155618608 c0,0 0.3449839949607849,-0.0146366311237216 0.3449839949607849,-0.5122820734977722 c0,-0.5122820734977722 -0.35319793224334717,-0.5122820734977722 -0.35319793224334717,-0.5122820734977722 c0,0 -0.1067807599902153,-0.16100293397903442 -0.36141180992126465,-0.16100293397903442 c-0.17249199748039246,0 -0.4189091622829437,0.16100293397903442 -0.4189091622829437,0.16100293397903442 l-23.204282760620117,-0.3000509440898895 c0,0 -0.008213904686272144,-0.10977473855018616 -0.06571123749017715,-0.10977473855018616 h-8.484964370727539 c-0.8460322022438049,0 -2.8099770545959473,0.600101888179779 -3.7200775146484375,0.9440626502037048 c-0.9700621962547302,0.36591577529907227 -2.4263875484466553,1.0757924318313599 -3.1401758193969727,1.1050655841827393 c-0.46572840213775635,0.0146366311237216 -0.9183146357536316,-0.16832126677036285 -1.2099082469940186,-0.2707776725292206 c-0.2907722294330597,-0.10977473855018616 -1.0464515686035156,-0.0585465244948864 -1.556535005569458,0 c-0.5084407329559326,0.05122821033000946 -9.512523651123047,0.86356121301651 -10.08010482788086,0.9074711203575134 c-0.566759467124939,0.036591578274965286 -0.9306354522705078,0.1536846160888672 -1.0464515686035156,0.5415553450584412 c-0.11745885014533997,0.3878706991672516 0.13060109317302704,1.5734379291534424 0.24723854660987854,2.80291485786438 c0.1166374534368515,1.2367953062057495 0.13060109317302704,2.0418100357055664 0.3055572807788849,2.3784525394439697 c0.17413479089736938,0.3366425335407257 0.6102931499481201,0.1390479952096939 1.280547857284546,-0.08050146698951721 c0.6686118841171265,-0.21954947710037231 3.8835344314575195,-1.3465701341629028 5.672523021697998,-1.968626856803894 c1.788988471031189,-0.6220568418502808 2.952077627182007,-1.0611557960510254 3.2724196910858154,-1.1197022199630737 c0.44519364833831787,-0.07318315654993057 0.7178953289985657,-0.0292732622474432 0.8057841062545776,0.13172967731952667 c0.08788878470659256,0.1536846160888672 0.3425198495388031,0.24882273375988007 0.9832044839859009,0.3878706991672516 c0.6390418410301208,0.14636631309986115 0.6546482443809509,0.16832126677036285 1.104770302772522,0.18295788764953613 c0.4517647922039032,0.0146366311237216 0.566759467124939,-0.21954947710037231 0.7129669189453125,-0.49764546751976013 c0.1462075114250183,-0.2707776725292206 0.355662077665329,-0.9660176634788513 1.1704814434051514,-1.5734379291534424 c0.8148193955421448,-0.6074201464653015 1.299439787864685,-0.6952399611473083 1.7249200344085693,-0.7976964116096497 c0.4041241407394409,-0.09513809531927109 0.8871017694473267,-0.14636631309986115 1.1343402862548828,-0.08781978487968445 c0.2480599284172058,0.05122821033000946 0.27680861949920654,0.3073692321777344 0.36387598514556885,0.504963755607605 c0.08624599874019623,0.19027619063854218 0.11335188895463943,0.43909895420074463 0.49037012457847595,0.6147384643554688 c0.38851770758628845,0.18295788764953613 0.9257071018218994,0.1756395697593689 1.6156750917434692,0.08781978487968445 c0.6406845450401306,-0.08050146698951721 0.9856686592102051,-0.5635102987289429 1.7331339120864868,-0.9367443919181824 c0.7146097421646118,-0.35859745740890503 1.2074440717697144,-0.4537355601787567 1.4292194843292236,-0.4537355601787567 h3.252706527709961 c0.30391448736190796,0 0.8788878917694092,0.1536846160888672 1.1910163164138794,0.1536846160888672 c0.3203422725200653,0 0.5421177744865417,-0.0146366311237216 0.6160428524017334,-0.06586483865976334 c0.07392515242099762,-0.05122821033000946 0.09035295248031616,-0.09513809531927109 0.09035295248031616,-0.09513809531927109 l2.6120219230651855,0.0146366311237216 v0.2561410367488861 c0,0 0.25463107228279114,0.24150441586971283 0.4517647922039032,0.24150441586971283 c0.19713371992111206,0 11.335188865661621,0.0585465244948864 11.606247901916504,0.0585465244948864 c0.27927276492118835,0 0.5585455298423767,-0.16100293397903442 0.5585455298423767,-0.16100293397903442 c0,0 0.32855620980262756,-0.0146366311237216 0.4353369474411011,-0.0146366311237216 c0.1314224749803543,-0.0073183155618608 0.1314224749803543,-0.0585465244948864 0.1314224749803543,-0.0585465244948864 c0,0 0.7146097421646118,-0.07318315654993057 0.7885348796844482,-0.07318315654993057 c0.18070590496063232,-0.0146366311237216 0.18070590496063232,-0.07318315654993057 0.18070590496063232,-0.07318315654993057 l4.295872211456299,0.07318315654993057 c0,0 -0.008213904686272144,0.14636631309986115 0.008213904686272144,0.18295788764953613 c0.024641714990139008,0.043909892439842224 0.33677011728286743,0.3732340931892395 0.3942674398422241,0.3878706991672516 c0.05749733746051788,0.021954946219921112 0.33677011728286743,0.021954946219921112 0.3778396546840668,0.0073183155618608 c0.049283429980278015,-0.0146366311237216 0.3778396546840668,-0.3512791395187378 0.41069525480270386,-0.3951890468597412 c0.024641714990139008,-0.043909892439842224 0,-0.16100293397903442 0,-0.16100293397903442 l2.053476333618164,0.0146366311237216 c0,0 0.13963638246059418,0 0.13963638246059418,-0.5561919808387756 c0,-0.6440117359161377 -0.13963638246059418,-0.6440117359161377 -0.13963638246059418,-0.6440117359161377 zm-32.92133331298828,2.1954946517944336 c-0.5092621445655823,0.043909892439842224 -1.0292023420333862,-0.0073183155618608 -1.2386568784713745,-0.13172967731952667 c-0.22506098449230194,-0.1390479952096939 -0.29652196168899536,-0.40250736474990845 -0.17167061567306519,-0.5488736629486084 c0.14949306845664978,-0.1756395697593689 0.31623533368110657,-0.24150441586971283 0.31623533368110657,-0.24150441586971283 c0,0 -0.08378183096647263,0.21223114430904388 -0.05667594447731972,0.41714397072792053 c0.01889198087155819,0.13172967731952667 0.14538611471652985,0.32200586795806885 0.25052410364151,0.3512791395187378 c0.14210055768489838,0.036591578274965286 0.04189091548323631,-0.043909892439842224 0.005749733652919531,-0.10245642066001892 c-0.062425676733255386,-0.09513809531927109 -0.12977971136569977,-0.26345935463905334 -0.05339037999510765,-0.5196003913879395 c0.06735402345657349,-0.22686778008937836 0.23409628868103027,-0.35859745740890503 0.40576690435409546,-0.38055238127708435 c0.25463107228279114,-0.036591578274965286 0.5503316521644592,-0.036591578274965286 0.6981819272041321,-0.036591578274965286 c0.36141180992126465,-0.0073183155618608 0.8953157067298889,0.1536846160888672 0.8871017694473267,0.5269187092781067 c-0.008213904686272144,0.3878706991672516 -0.5585455298423767,0.629375159740448 -1.043165922164917,0.6659667491912842 zm29.709693908691406,-2.2833144664764404 l-4.328728199005127,-0.08050146698951721 c0,0 0,-0.0585465244948864 -0.1889198273420334,-0.07318315654993057 c-0.08213905245065689,-0.0073183155618608 -0.7803210020065308,-0.10977473855018616 -0.7803210020065308,-0.10977473855018616 c0,0 0,-0.05122821033000946 -0.11499467492103577,-0.0585465244948864 c-0.024641714990139008,0 -0.06571123749017715,-0.0073183155618608 -0.06571123749017715,-0.0073183155618608 v-0.1390479952096939 l5.486888408660889,0.0292732622474432 z" stroke-width="0"/>
      </g>
    </g></g></svg>